<?xml version="1.0" encoding="UTF-8" standalone="no"?>
<!-- Created with Inkscape (http://www.inkscape.org/) -->

<svg
   width="190.02409mm"
   height="33.49292mm"
   viewBox="0 0 190.02409 33.492921"
   version="1.1"
   id="svg1"
   xml:space="preserve"
   sodipodi:docname="calli.svg"
   inkscape:version="1.4 (e7c3feb100, 2024-10-09)"
   xmlns:inkscape="http://www.inkscape.org/namespaces/inkscape"
   xmlns:sodipodi="http://sodipodi.sourceforge.net/DTD/sodipodi-0.dtd"
   xmlns="http://www.w3.org/2000/svg"
   xmlns:svg="http://www.w3.org/2000/svg"><sodipodi:namedview
     id="namedview1"
     pagecolor="#505050"
     bordercolor="#eeeeee"
     borderopacity="1"
     inkscape:showpageshadow="0"
     inkscape:pageopacity="0"
     inkscape:pagecheckerboard="0"
     inkscape:deskcolor="#505050"
     inkscape:document-units="mm"
     inkscape:zoom="0.68380329"
     inkscape:cx="524.27358"
     inkscape:cy="81.163692"
     inkscape:window-width="1440"
     inkscape:window-height="834"
     inkscape:window-x="0"
     inkscape:window-y="0"
     inkscape:window-maximized="1"
     inkscape:current-layer="svg1" /><defs
     id="defs1" /><path
     style="fill:#000000"
     d="m 182.37454,33.389176 c 0.1321,-0.24682 0.46544,-0.65263 0.74077,-0.90179 0.59295,-0.53662 5.97742,-3.118415 6.14944,-2.948596 0.0653,0.06446 -0.23236,0.462485 -0.66146,0.884496 -0.97018,0.95413 -6.58223,3.62638 -6.22875,2.96589 z M 26.427267,32.828786 c -6.29719,-0.733 -11.82414,-2.722391 -14.23303,-5.123093 -0.99051,-0.987141 -3.1015093,-4.068285 -3.4538693,-5.04117 -0.0981,-0.270722 0.49632,0.124323 1.3208303,0.877878 4.081749,3.730492 8.795689,5.830805 15.213099,6.778245 3.56739,0.52668 10.625551,0.40019 14.253401,-0.255421 6.44182,-1.164146 14.091,-4.412687 15.76577,-6.695585 0.86142,-1.174211 0.9304,-1.894868 0.31771,-3.31911 -0.51004,-1.185612 -0.52377,-1.36257 -0.1646,-2.120965 l 0.39186,-0.82743 0.49325,0.834998 c 0.82027,1.388601 2.40496,1.316323 3.51359,-0.160255 1.49792,-1.995088 2.32828,-2.603938 4.2017,-3.080869 2.7065,-0.689016 2.69982,-0.685005 1.80321,-1.084028 -0.43657,-0.194284 -1.5379,-0.358614 -2.4474,-0.365178 -0.9974,-0.0072 -1.65365,-0.12501 -1.65365,-0.296869 0,-0.156715 0.34803,-0.632965 0.7734,-1.058334 1.07415,-1.074147 2.07745,-1.008778 4.79685,0.312533 1.22923,0.597261 3.35769,1.372723 4.72991,1.723249 1.37222,0.350525 2.52296,0.665528 2.55718,0.700007 0.0342,0.03448 -0.21957,0.39009 -0.56399,0.790247 l -0.62622,0.727558 -1.52353,-0.396829 c -0.83794,-0.218256 -2.15961,-0.396829 -2.93706,-0.396829 -1.50375,0 -5.09556,0.716314 -5.08145,1.013395 0.005,0.09748 0.18322,0.408346 0.39687,0.690821 0.21365,0.282475 0.38802,0.818256 0.38747,1.190625 -0.001,0.97891 -0.9427,2.396826 -1.59112,2.396826 -0.74881,0 -2.17169,-0.62417 -2.59987,-1.140477 -0.32106,-0.387146 -0.41877,-0.353525 -1.00814,0.346893 -0.38095,0.452733 -1.02696,0.845819 -1.5519,0.944298 -0.82333,0.154458 -0.93555,0.293441 -1.32861,1.645506 -0.61267,2.107518 -3.12555,4.569928 -6.20687,6.082219 -3.09605,1.519517 -8.23117,3.157554 -11.82449,3.771864 -3.44119,0.5883 -9.402881,0.85159 -12.120301,0.53528 z M 63.601228,18.404552 c 0,-0.357771 -1.24248,-1.200932 -1.76968,-1.200932 -0.77297,0 -0.78276,0.379256 -0.0235,0.911038 0.5376,0.376555 1.79321,0.579538 1.79321,0.289894 z m 34.925,12.870514 c 0,-0.44873 1.24277,-1.362349 3.101512,-2.280067 2.11935,-1.046381 2.51285,-1.138187 2.28023,-0.531982 -0.17247,0.449444 -5.381742,3.171379 -5.381742,2.812049 z M 2.4824777,29.952153 c 0,-0.472611 1.28547,-1.377375 3.42016,-2.407242 2.24955,-1.085284 2.77067,-1.18404 2.1217,-0.402083 -0.43766,0.527345 -5.54186,3.114808 -5.54186,2.809325 z M 55.554598,29.243941 c 0.43157,-0.658662 4.30455,-2.779904 5.07556,-2.779904 0.83342,0 -0.5819,1.107947 -2.91063,2.278518 -1.27039,0.638586 -2.37447,1.161065 -2.45349,1.161065 -0.079,0 0.0508,-0.296856 0.28856,-0.659679 z m 12.64331,-0.877839 c -0.74605,-0.245772 -1.63902,-0.648971 -1.98438,-0.896 -0.61158,-0.437451 -0.57195,-0.449504 1.52257,-0.463021 2.55345,-0.01648 3.6526,-0.414552 5.27569,-1.910671 1.22852,-1.132404 1.4454,-1.861327 0.77443,-2.602745 -0.31714,-0.350429 -0.34044,-0.606275 -0.1143,-1.254972 0.28163,-0.807879 0.29041,-0.811157 1.03211,-0.385478 0.62619,0.359383 0.86629,0.37546 1.47376,0.09868 0.69933,-0.318639 0.71991,-0.385509 0.56639,-1.841024 -0.0876,-0.830707 -0.58665,-3.713033 -1.10896,-6.405168 -1.27002,-6.5461227 -1.27992,-6.6289177 -0.90235,-7.5406247 0.28417,-0.686173 0.34471,-0.722032 0.44669,-0.264584 0.0649,0.291042 0.29841,0.732765 0.51895,0.981606 0.27494,0.310209 0.3492,0.728539 0.23623,1.330724 -0.0956,0.509612 0.11008,2.417078 0.49,4.5441367 0.98064,5.490315 1.25303,7.785807 1.05968,8.930217 -0.19911,1.178542 -1.27053,2.601859 -1.95858,2.601859 -0.31419,0 -0.56926,0.35211 -0.79085,1.091715 -0.35402,1.181611 -2.32292,3.479217 -3.50552,4.090763 -0.90475,0.467861 -1.337,0.452831 -3.03156,-0.105413 z m 13.92415,-0.709821 c 0.70752,-0.766965 4.46257,-2.779744 5.1859,-2.779744 0.84095,0 -0.18825,0.80234 -2.65798,2.072108 -2.96317,1.523457 -3.39098,1.643213 -2.52792,0.707636 z m 103.766502,0.122294 c -0.92848,-0.564645 -1.05582,-1.158362 -0.4377,-2.040845 0.39476,-0.56361 0.43136,-0.567309 1.33755,-0.135181 0.79079,0.377105 0.907,0.542582 0.76851,1.094358 -0.0897,0.35754 -0.31202,0.862609 -0.49397,1.122376 -0.31628,0.451559 -0.36786,0.449771 -1.17439,-0.04071 z m -89.743582,0.179801 c 0,-0.05124 1.31762,-1.016251 2.92805,-2.144473 2.291722,-1.605515 2.885902,-2.145895 2.734062,-2.486527 -0.52119,-1.16922 0.64659,-4.00709 1.6489,-4.00709 0.23339,0 0.85039,0.374081 1.37113,0.83129 1.92709,1.692015 4.21626,2.38747 9.83869,2.98902 15.5144,1.659902 33.28158,1.753332 49.74167,0.26157 8.64276,-0.783285 14.08711,-1.747612 14.81445,-2.624 0.49568,-0.597249 0.85862,-0.481822 0.51338,0.163269 -0.36044,0.673493 0.0983,1.110599 0.94405,0.899447 0.29104,-0.07267 0.6917,-0.133746 0.89035,-0.135733 0.19866,-0.002 0.77256,-0.450097 1.27534,-0.9958 0.86862,-0.942783 0.90547,-0.95704 0.74006,-0.286323 -0.13745,0.557339 -0.0535,0.770399 0.39899,1.012561 0.77708,0.415884 1.29615,0.164429 1.62848,-0.788895 0.2924,-0.83877 0.75532,-1.080133 0.75532,-0.393815 0,0.474011 1.03384,0.919493 2.13389,0.919493 0.56324,0 0.77647,-0.127177 0.77632,-0.463021 -2.4e-4,-0.524356 -1.20152,-3.150097 -2.29417,-5.014575 -0.69207,-1.180917 -0.7388,-1.211919 -0.89846,-0.596037 -0.15635,0.603086 -0.1821,0.582433 -0.3591,-0.28801 -0.24034,-1.181957 -0.10233,-2.890612 0.23994,-2.970448 0.39589,-0.09234 2.4083,3.380495 3.33573,5.756512 0.62521,1.601723 0.7937,2.388528 0.69639,3.251882 -0.24187,2.145811 -1.36405,2.619112 -3.16662,1.335574 -0.41743,-0.297241 -0.79651,-0.497684 -0.84238,-0.445428 -0.0459,0.05226 -0.2802,0.481962 -0.52073,0.954905 -0.48729,0.958152 -1.49601,1.16268 -2.4161,0.489889 -0.44231,-0.323425 -0.58641,-0.306771 -1.14459,0.132291 -0.85546,0.672903 -3.7422,0.732391 -3.7422,0.07712 0,-0.296927 -0.13967,-0.371038 -0.46303,-0.245686 -4.79163,1.857548 -22.71428,3.46079 -38.16614,3.414092 -12.31376,-0.03721 -26.0126,-1.008322 -31.83342,-2.256664 -1.16021,-0.24882 -1.37507,-0.227203 -1.66359,0.167374 -0.31203,0.426722 -0.4208,0.427083 -1.86854,0.0062 -1.4518,-0.422048 -1.55212,-0.421432 -1.80511,0.0111 -0.8044,1.375224 -1.60824,1.993869 -3.577512,2.753299 -1.95929,0.755584 -2.6435,0.940809 -2.6435,0.715632 z m 8.466662,-5.956575 c 0,-0.125896 -0.25029,-0.547096 -0.5562,-0.936 -0.44058,-0.560111 -0.63308,-0.643293 -0.92604,-0.400159 -0.56916,0.472364 -0.44744,0.763127 0.49006,1.170602 1.04476,0.454099 0.99218,0.445326 0.99218,0.165557 z m -65.748962,5.078187 c -1.40987,-0.371971 -2.52938,-2.221359 -2.48988,-4.113183 l 0.0237,-1.132977 0.34802,1.26544 c 0.4273,1.553742 0.74877,1.960533 1.71747,2.173296 1.29771,0.285023 2.84561,-0.328152 4.2531,-1.684783 1.44541,-1.393199 1.66751,-2.271732 0.77785,-3.07687 -0.58972,-0.533689 -0.67256,-1.222069 -0.24353,-2.02372 0.267,-0.498901 0.31718,-0.505183 0.769,-0.09629 0.30167,0.273005 0.8159,0.405576 1.36801,0.35268 0.87614,-0.08394 0.8845,-0.09747 0.87012,-1.407672 -0.008,-0.727604 -0.36518,-3.108854 -0.79375,-5.291666 l -0.77923,-3.9687507 -0.13229,3.1750007 -0.13229,3.175 -0.23199,-1.811397 c -0.28235,-2.204636 -0.0996,-7.0075267 0.29329,-7.7096517 0.25352,-0.453013 0.31974,-0.383887 0.58855,0.614424 0.99027,3.677555 2.25494,11.8599827 2.03888,13.1914497 -0.17235,1.062034 -1.08949,2.197466 -1.775,2.197466 -0.32113,0 -0.49855,0.308477 -0.62221,1.081796 -0.21218,1.326886 -1.67014,3.666319 -2.77535,4.453295 -0.85088,0.605883 -2.16104,0.877563 -3.07242,0.637111 z m -8.786981,-1.913385 c -0.17618,-0.75337 -0.57173,-1.722833 -0.879,-2.154362 -0.55406,-0.7781 -0.62154,-1.726845 -0.11998,-1.686685 0.14353,0.01149 0.53551,0.564633 0.87106,1.229201 0.45723,0.905559 0.58982,1.555739 0.52917,2.594958 l -0.0809,1.386653 z m -11.67502,-0.358641 c -0.51166,-0.246083 -0.59063,-0.43543 -0.45806,-1.098304 0.2322,-1.160991 0.52221,-1.343697 1.49395,-0.94119 0.75179,0.311403 0.88237,0.297031 1.1958,-0.131616 0.19352,-0.264654 0.39116,-0.599106 0.4392,-0.743224 0.0693,-0.207782 1.54255,0.342235 2.00863,0.749871 0.2089,0.182703 -0.5543,1.968329 -0.84064,1.966824 -0.17061,-8.96e-4 -0.6423,-0.17485 -1.04818,-0.386564 -0.69925,-0.364732 -0.75355,-0.350759 -1.03466,0.266213 -0.31995,0.702218 -0.78285,0.78604 -1.75604,0.31799 z M 2.3501777,22.098864 c 3.62415,-2.562407 3.46112,-2.406713 3.04505,-2.908052 -0.65327,-0.787138 0.74764,-3.839276 1.7622,-3.839276 0.22177,0 0.93673,0.469612 1.58879,1.043581 0.72031,0.634047 1.8783903,1.282989 2.9510193,1.653646 1.58594,0.548035 2.23623,0.609318 6.39565,0.602714 2.58413,-0.0041 5.5071,-0.160042 6.61459,-0.352886 2.78837,-0.485533 5.39967,-1.280237 6.118,-1.861907 0.600101,-0.485933 0.615671,-0.484715 0.895941,0.07006 0.24142,0.477882 0.50692,0.56084 1.72887,0.540203 0.84211,-0.01422 1.93975,-0.249982 2.63427,-0.565808 l 1.19062,-0.541427 -0.79375,-0.328133 c -0.43656,-0.180472 -1.71648,-0.387641 -2.84427,-0.460374 -1.12778,-0.07273 -2.05007,-0.206241 -2.04953,-0.296685 5.5e-4,-0.09044 0.23498,-0.5482 0.52096,-1.017237 0.76488,-1.254464 1.50887,-1.32077 4.18056,-0.372579 2.45168,0.870108 4.94382,1.352388 7.00531,1.355667 0.69122,0.0011 1.25677,0.07292 1.25677,0.159613 0,0.08669 -0.18667,0.473641 -0.41481,0.859896 -0.38728,0.655663 -0.54096,0.702515 -2.31511,0.705796 -1.62628,0.003 -2.37027,0.184226 -5.15966,1.256771 -1.79266,0.689291 -3.52807,1.253256 -3.85649,1.253256 -0.32841,0 -0.87658,-0.297478 -1.21815,-0.661063 -0.550581,-0.586066 -0.669471,-0.617229 -1.047971,-0.274689 -0.78278,0.708406 -2.76093,1.423578 -5.56698,2.01266 -3.39143,0.711974 -11.73434,0.884589 -13.74419,0.284369 -1.049809,-0.313516 -1.211539,-0.303387 -1.5021793,0.09408 -0.30221,0.413303 -0.43019,0.415048 -1.77466,0.0242 -0.79692,-0.231673 -1.51022,-0.421224 -1.58509,-0.421224 -0.0749,0 -0.40427,0.433843 -0.73198,0.964094 -0.4483,0.72536 -1.07474,1.185356 -2.52979,1.857631 -1.06367,0.491446 -2.32330004,0.967189 -2.79917004,1.057207 -0.69263,0.131019 -0.28465,-0.246825 2.04518004,-1.894104 z m 5.71724,-4.299932 c -0.13998,-0.254661 -0.41832,-0.682131 -0.61854,-0.949933 -0.32575,-0.435705 -0.39975,-0.44388 -0.70362,-0.07774 -0.40064,0.482739 -0.19417,0.910296 0.59294,1.227877 0.86073,0.347288 1.00794,0.306872 0.72922,-0.200208 z m 82.0483803,5.618474 c -0.58297,-0.251831 -1.0058,-0.701244 -1.28223,-1.362818 l -0.41243,-0.987082 -0.45945,0.609111 c -0.57341,0.760193 -2.54025,1.052753 -3.29102,0.489528 -0.45625,-0.342271 -0.46324,-0.430024 -0.0913,-1.145245 0.53333,-1.025537 1.40067,-1.810749 2.84176,-2.572685 0.65282,-0.345154 1.22437,-0.853276 1.27504,-1.133526 0.0505,-0.279369 0.19933,-0.621054 0.33072,-0.759298 0.14326,-0.150724 0.23891,0.54071 0.23891,1.727066 0,2.471876 0.39129,3.154496 1.80821,3.154496 0.54145,0 1.24816,-0.1847 1.57045,-0.410444 1.09354,-0.765947 1.16748,-1.241588 0.59833,-3.849309 -0.49424,-2.264545 -0.49659,-3.677747 -0.006,-3.677747 0.11514,0 0.40763,0.922734 0.64997,2.050521 0.68603,3.192616 1.18319,4.512439 1.91728,5.089875 0.67926,0.534305 1.78614,0.712405 2.02506,0.325837 0.0703,-0.113677 -0.39897,-1.551991 -1.04272,-3.196254 -1.17802,-3.008891 -1.35133,-3.839531 -0.93736,-4.492676 0.15162,-0.239221 0.63337,0.75305 1.47724,3.042709 0.98812,2.681056 1.22578,3.634066 1.1268,4.518358 -0.15972,1.426853 -0.82316,2.451506 -1.58647,2.450224 -1.02817,-0.0017 -2.24089,-0.939658 -2.45404,-1.897996 l -0.19554,-0.87914 -0.47255,1.106179 c -0.73444,1.719248 -2.16879,2.430903 -3.62855,1.800316 z m -2.37134,-3.160183 c 0.55704,-0.117341 0.7276,-0.307139 0.7276,-0.809686 0,-0.361029 -0.0654,-0.656417 -0.14543,-0.656417 -0.20944,0 -1.77985,0.812744 -2.16676,1.12138 -0.43192,0.344536 -0.19073,0.705192 0.39423,0.589508 0.25451,-0.05033 0.79017,-0.160487 1.19036,-0.244785 z m -6.7552,1.17973 c -0.0812,-0.218281 -0.22105,-1.31261 -0.31078,-2.431842 -0.0897,-1.119232 -0.51602,-3.957876 -0.94729,-6.308099 -0.78249,-4.2642127 -0.89208,-5.7674387 -0.52981,-7.2673507 0.13406,-0.555042 0.24285,-0.674396 0.36173,-0.396875 0.31066,0.725217 1.74127,9.9866177 1.90835,12.3541357 0.15686,2.222887 -0.16289,4.908505 -0.4822,4.050031 z m -29.85541,-0.396875 c -0.0903,-0.145521 -0.24928,-1.157552 -0.3532,-2.248958 -0.10392,-1.091407 -0.59794,-4.008438 -1.09783,-6.482292 -0.87877,-4.3489017 -0.97244,-6.1209827 -0.38204,-7.2273367 0.17365,-0.32541 1.22181,4.628373 1.86512,8.8148367 0.2908,1.892507 0.2651,7.622414 -0.032,7.14375 z m 50.567382,-1.955784 c 0,-0.810432 -0.75719,-4.788042 -1.60653,-8.439358 -0.523742,-2.2515467 -0.703652,-5.6599007 -0.274592,-5.2020457 0.12955,0.138245 0.677482,2.275417 1.217632,4.7492707 1.02859,4.7109 1.52206,9.657292 0.96345,9.657292 -0.16498,0 -0.29996,-0.344322 -0.29996,-0.765159 z m 78.29579,-1.919692 c -0.22841,-0.42678 -0.22891,-0.819095 -0.002,-1.576392 0.40925,-1.365938 0.7983,-1.533593 0.62895,-0.271036 -0.15552,1.15953 0.2032,1.568566 0.82783,0.943937 0.38122,-0.381219 0.4182,-0.362713 0.4182,0.209235 0,1.24406 -1.31738,1.732376 -1.87296,0.694256 z M 81.859288,15.686723 c 9.9e-4,-0.111592 0.44378,-0.500551 0.98397,-0.864353 0.54019,-0.363802 1.37549,-1.003564 1.85622,-1.421692 0.7325,-0.637111 0.81202,-0.808513 0.491,-1.058334 -0.21725,-0.169065 -0.42025,-0.870735 -0.46897,-1.621016 -0.0853,-1.3139957 -0.0807,-1.3225437 0.68209,-1.2675747 0.89995,0.06485 2.17201,1.1853037 2.33931,2.0605247 0.16373,0.856464 -0.22228,1.434423 -0.84863,1.270629 -0.35986,-0.0941 -0.78912,0.147507 -1.38969,0.782184 -0.84702,0.895133 -3.64891,2.524346 -3.6453,2.119632 z m 5.55444,-4.006957 c 0,-0.127702 -0.1786,-0.380406 -0.39688,-0.561563 -0.33157,-0.275184 -0.39687,-0.236982 -0.39687,0.232186 0,0.322779 0.16875,0.561564 0.39687,0.561564 0.21828,0 0.39688,-0.104484 0.39688,-0.232187 z m -1.32292,-0.429271 c 0,-0.218282 -0.17859,-0.396875 -0.39687,-0.396875 -0.21829,0 -0.39688,0.178593 -0.39688,0.396875 0,0.218281 0.17859,0.396875 0.39688,0.396875 0.21828,0 0.39687,-0.178594 0.39687,-0.396875 z m -66.327721,3.628584 c -0.55188,-0.350918 -0.82057,-1.481552 -0.61115,-2.571723 0.15144,-0.788384 0.21074,-0.877523 0.23344,-0.350897 0.0167,0.388281 0.1027,0.894296 0.19103,1.124479 0.23806,0.620384 1.14359,0.507534 1.41865,-0.176798 0.20887,-0.519631 0.24142,-0.471579 0.25606,0.377977 0.01,0.551994 -0.1632,1.153259 -0.399,1.389062 -0.46489,0.464891 -0.63407,0.497188 -1.08903,0.2079 z m 34.341301,-0.872014 c -0.74811,-0.45495 -0.84803,-0.633806 -0.69663,-1.246976 0.27702,-1.121973 0.56447,-1.260318 1.59631,-0.768269 l 0.93314,0.444985 -0.40978,0.980754 c -0.22538,0.539415 -0.44126,1.012228 -0.47973,1.050696 -0.0385,0.03847 -0.46296,-0.169068 -0.94331,-0.46119 z m 37.21194,-2.124141 c -0.56642,-0.320324 -0.60023,-1.278218 -0.0696,-1.9709217 0.37894,-0.494657 0.39114,-0.489206 0.33073,0.1478677 -0.0845,0.891376 0.95393,0.954967 1.08016,0.06615 0.0956,-0.6730277 0.57692,-0.8201917 0.57692,-0.1763887 0,0.6348377 0.62535,0.2926297 0.80139,-0.438539 l 0.15453,-0.641843 0.17988,0.661459 c 0.0989,0.363802 0.18151,0.8017817 0.1835,0.9732887 0.006,0.497214 -0.82255,1.187556 -1.23499,1.029286 -0.20714,-0.07949 -0.63828,0.02558 -0.95807,0.233486 -0.41156,0.267556 -0.71675,0.301498 -1.04447,0.11616 z m 85.394282,-0.698929 c 0.14552,-0.146548 0.70941,-0.408583 1.25308,-0.582299 0.54368,-0.173717 1.0502,-0.415674 1.12561,-0.537683 0.2347,-0.3797597 -1.95621,-0.6193567 -2.38784,-0.2611317 -0.76258,0.6328817 -0.37079,-0.184786 0.48682,-1.016022 0.8115,-0.78653 0.9658,-0.835142 2.14,-0.674199 0.696,0.0954 1.32757,0.335339 1.4035,0.533205 0.17197,0.44815 -0.52706,1.5441297 -1.31288,2.0584047 -0.70437,0.460976 -3.1134,0.88769 -2.70829,0.479725 z M 37.848448,10.148064 c -0.26426,-0.2642627 -0.20477,-1.7515267 0.0882,-2.2048607 0.20061,-0.310418 0.25736,-0.241772 0.26053,0.315114 0.002,0.391594 0.12833,0.788797 0.28022,0.882674 0.3868,0.239054 1.04675,-0.369733 1.04675,-0.965602 0,-0.273223 0.11906,-0.49677 0.26458,-0.49677 0.14552,0 0.26458,0.238125 0.26458,0.529167 0,0.291042 0.16586,0.529167 0.36857,0.529167 0.44687,0 0.72968,-0.646461 0.52087,-1.190625 -0.0838,-0.218281 -0.0354,-0.396875 0.10752,-0.396875 0.33505,0 0.60476,1.343692 0.4152,2.068564 -0.16126,0.616669 -0.84796,0.9402177 -1.48041,0.697523 -0.22406,-0.08598 -0.48599,-0.02915 -0.58206,0.1262917 -0.19242,0.311352 -1.27542,0.38536 -1.55455,0.106232 z M 14.388727,9.8471893 c 0,-0.384047 1.69823,-1.836176 2.77812,-2.375523 2.73908,-1.368024 18.247071,-5.414481 27.252081,-7.11081197 l 0.79375,-0.149524 -0.78641,0.83294897 c -0.43253,0.458121 -1.02785,0.887445 -1.32292,0.954053 -6.30453,1.423139 -15.018961,3.45727 -16.543791,3.861671 -5.8781,1.558929 -9.95188,2.931512 -11.27638,3.799357 -0.69036,0.4523417 -0.89445,0.4951997 -0.89445,0.187829 z m 54.415971,0.03629 c -0.26426,-0.264264 -0.20477,-1.751527 0.0882,-2.204862 0.20205,-0.312655 0.25734,-0.25183 0.26053,0.286632 0.002,0.375929 0.0792,0.758693 0.17113,0.850587 0.3331,0.333097 1.12303,-0.360623 1.2195,-1.070971 l 0.0988,-0.727706 0.32002,0.756362 c 0.26808,0.633628 0.38467,0.7027 0.71847,0.425666 0.229,-0.190047 0.33208,-0.539869 0.24237,-0.822507 -0.0858,-0.270497 -0.0385,-0.491813 0.1053,-0.491813 0.41171,0 0.63409,1.498829 0.31174,2.101149 -0.29041,0.542636 -0.539,0.644409 -1.37393,0.562492 -0.24177,-0.02372 -0.51669,0.08163 -0.61093,0.234116 -0.18982,0.3071367 -1.27443,0.3776537 -1.55123,0.100855 z m -12.14879,-0.96973 c -0.10914,-0.266564 -0.19843,-0.695315 -0.19843,-0.952781 0,-0.257466 -0.29766,-1.027935 -0.66146,-1.712152 -0.7154,-1.345471 -0.81363,-1.884505 -0.39104,-2.145681 0.5009,-0.309573 1.61958,2.635239 1.53042,4.028679 -0.0558,0.872829 -0.14274,1.115921 -0.27949,0.781935 z m 36.2257,-1.367423 c -0.12136,-0.582084 -0.52683,-1.623145 -0.90105,-2.313471 -0.51797,-0.95549 -0.62097,-1.38833 -0.43146,-1.81304 0.22747,-0.509791 0.31204,-0.441979 0.98058,0.786352 0.60407,1.109881 0.71777,1.610511 0.65211,2.871373 l -0.0795,1.527119 z m -33.24913,-1.136754 c 0,-0.129081 0.47125,-0.375882 1.04722,-0.548448 0.57598,-0.172567 1.11507,-0.423522 1.19798,-0.557679 0.1822,-0.294811 -1.54904,-0.655939 -2.11092,-0.440326 -0.63245,0.242694 -0.46614,-0.196046 0.38252,-1.009114 0.70704,-0.677384 0.90114,-0.732205 2.03983,-0.576129 0.69215,0.09487 1.37087,0.284917 1.50829,0.422328 0.28069,0.28069 -0.88955,1.971446 -1.62828,2.352536 -0.70636,0.364389 -2.43664,0.617779 -2.43664,0.356832 z M 11.346017,6.1691483 c 0.14552,-0.140332 0.85989,-0.476559 1.5875,-0.747171 l 1.32291,-0.492022 -0.92604,-0.209104 c -0.50932,-0.115007 -1.19393,-0.149132 -1.52135,-0.07583 -0.804869,0.180181 -0.74866,-0.16006 0.17219,-1.042295 0.72063,-0.690403 0.85262,-0.721709 2.16094,-0.512522 0.76638,0.122537 1.44148,0.367184 1.50021,0.543658 0.0587,0.176475 -0.34814,0.802586 -0.90417,1.391359 -0.83887,0.888288 -1.23611,1.09846 -2.33386,1.234789 -0.852,0.10581 -1.22873,0.07347 -1.05833,-0.09086 z m 54.371871,-0.31002 c 0,-0.561141 1.79711,-1.722782 4.73112,-3.058169 1.80176,-0.82005 3.32591,-1.441008 3.38701,-1.379907 0.0611,0.0611 -0.1629,0.409064 -0.49779,0.773249 -0.61163,0.665146 -7.62034,4.035823 -7.62034,3.664827 z m -18.06415,-3.009154 c 0.41214,-0.701218 0.67296,-0.861314 1.41342,-0.867576 0.69293,-0.0059 1.13679,-0.240894 1.87375,-0.99218797 1.46474,-1.493214 2.53539,-1.142467 1.81577,0.59484697 -0.51052,1.232519 -1.43411,1.685857 -3.08704,1.515259 -1.02949,-0.106252 -1.5175,-0.04315 -1.79242,0.231775 -0.6456,0.645598 -0.75172,0.416656 -0.22348,-0.482117 z m 4.15189,-0.888204 c 0.23018,-0.08833 0.41851,-0.326454 0.41851,-0.529166 0,-0.56113797 -1.00173,-0.43952897 -1.32291,0.160599 -0.30294,0.566043 0.033,0.702951 0.9044,0.368567 z m 26.0831,1.560205 c 0,-0.14845 0.25263,-0.591074 0.56139,-0.983609 0.40787,-0.518513 0.75923,-0.692949 1.28475,-0.637826 0.5471,0.05739 0.94977,-0.164209 1.65265,-0.90948097 1.18206,-1.253346 2.05746,-1.32621 2.05746,-0.171254 0,0.55515897 -0.25728,1.07137697 -0.80886,1.62295697 -0.76262,0.762624 -0.89457,0.800008 -2.30859,0.654068 -1.16522,-0.120261 -1.60447,-0.06001 -1.96927,0.270133 -0.25824,0.233707 -0.46953,0.303462 -0.46953,0.155012 z m 4.7718,-1.807694 c 0.25881,-0.311838 0.2656,-0.481179 0.0288,-0.71798297 -0.2368,-0.236804 -0.47923,-0.140553 -1.02787,0.40808797 l -0.71799,0.717983 h 0.6892 c 0.37905,0 0.8416,-0.183639 1.02787,-0.408088 z m 15.33653,1.807694 c 0,-0.14845 0.25382,-0.59259 0.56405,-0.986978 0.44081,-0.560397 0.70854,-0.680803 1.22537,-0.551085 0.531402,0.133373 0.830462,-0.01866 1.522162,-0.773821 1.06103,-1.15837497 2.24467,-1.31585497 2.24467,-0.29864697 0,0.88062297 -1.16762,2.19310397 -2.14129,2.40695997 -0.45555,0.100055 -1.14348,0.03602 -1.587102,-0.147737 -0.67193,-0.27832 -0.85716,-0.257258 -1.30544,0.148438 -0.28733,0.260028 -0.52242,0.35132 -0.52242,0.20287 z m 4.534752,-1.644533 c 0.57115,-0.465885 0.58414,-0.525267 0.15175,-0.693547 -0.29505,-0.114832 -0.66816,-0.0073 -0.99219,0.285934 -1.03716,0.938622 -0.26791,1.311708 0.84044,0.407613 z"
     id="path1" /></svg>
