<?xml version="1.0" encoding="UTF-8" standalone="no"?>
<!-- Created with Inkscape (http://www.inkscape.org/) -->

<svg
   width="164.1848mm"
   height="160.05608mm"
   viewBox="0 0 164.1848 160.05608"
   version="1.1"
   id="svg1"
   xml:space="preserve"
   xmlns="http://www.w3.org/2000/svg"
   xmlns:svg="http://www.w3.org/2000/svg"><defs
     id="defs1" /><g
     id="layer1"
     transform="translate(-22.907602,-46.036696)"><path
       style="fill:#000000"
       d="m 117.46289,205.69441 c -0.42297,-0.42297 -0.46428,-0.76276 -0.31791,-2.61515 0.19579,-2.47796 0.59827,-3.89976 1.72612,-6.09776 0.93803,-1.82809 1.00231,-2.23705 0.35827,-2.27943 -1.41736,-0.0933 -2.51414,0.38941 -4.34897,1.91391 -0.68205,0.56671 -1.30089,0.93201 -1.37519,0.8118 -0.0743,-0.12022 0.0829,-0.92465 0.34942,-1.78764 0.41793,-1.35347 0.69777,-1.74246 2.03665,-2.83105 1.52686,-1.24144 2.75187,-1.77633 4.07479,-1.77924 0.74287,-0.002 1.5784,1.11496 1.5784,2.10936 0,0.82674 -1.17603,4.20926 -2.2512,6.47498 -0.50809,1.07069 -0.9238,2.12116 -0.9238,2.33437 0,1.14056 5.01841,0.41665 8.60758,-1.24165 4.30278,-1.98801 8.95011,-6.1743 12.48228,-11.24399 0.0422,-0.0606 0.14354,-0.0435 0.2251,0.038 0.30172,0.30172 -1.40788,4.11036 -2.53059,5.63764 -4.67598,6.36102 -11.08933,10.44968 -17.07636,10.88661 -1.84192,0.13442 -2.1939,0.0899 -2.61459,-0.33081 z m -53.344119,-3.09883 c -0.224393,-0.32285 -0.810402,-1.42044 -1.302243,-2.43908 -1.45368,-3.0107 -2.630607,-4.63021 -3.364854,-4.63021 -0.348996,0 -1.101302,-0.23813 -1.671791,-0.52917 -0.570489,-0.29104 -1.274519,-0.52916 -1.56451,-0.52916 -0.903718,0 -1.880954,-0.59277 -2.043243,-1.23938 -0.349189,-1.39128 0.454895,-4.69767 1.245303,-5.12069 1.56001,-0.83489 5.605149,3.1915 8.183933,8.146 0.624877,1.20055 1.229526,2.18282 1.343665,2.18282 0.314982,0 0.456176,-0.67121 0.779205,-3.70417 0.696783,-6.54219 1.665677,-8.99584 3.552271,-8.99584 1.645629,0 4.345448,2.79596 4.369001,4.52459 0.0112,0.82176 -0.490065,2.35458 -0.769995,2.35458 -0.109141,0 -0.853282,-0.65484 -1.653646,-1.45521 -0.851459,-0.85146 -1.68864,-1.45521 -2.017843,-1.45521 -0.768448,0 -1.292513,1.10754 -1.646346,3.47931 -1.02173,6.84873 -1.365029,8.89137 -1.583038,9.41913 -0.319206,0.77275 -1.316106,0.76828 -1.855869,-0.008 z m 82.188259,-2.26793 c -0.21251,-0.34385 1.05121,-6.78262 1.54585,-7.87626 0.22728,-0.50252 1.33991,-1.55333 2.84143,-2.68355 2.89362,-2.17808 7.58347,-6.90778 9.16203,-9.23987 1.33031,-1.96534 3.0838,-5.91367 3.47584,-7.82655 0.62172,-3.03348 1.07479,-7.61041 1.07479,-10.8574 v -3.42112 l -0.59531,0.17175 c -0.32742,0.0945 -2.14313,0.57739 -4.0349,1.07319 -1.89177,0.4958 -5.7613,1.69061 -8.59896,2.65515 -2.83765,0.96453 -5.51656,1.85501 -5.95312,1.97883 -2.7745,0.78695 -9.84378,4.25475 -10.11515,4.96194 -0.43192,1.12556 4.64981,4.28603 9.05682,5.63269 1.01864,0.31128 2.32833,0.7172 2.91041,0.90206 l 1.05834,0.33611 -0.0594,1.95677 c -0.0752,2.47735 -0.72434,6.22902 -1.17087,6.76704 -0.60415,0.72796 -5.40074,0.11876 -8.59432,-1.09154 -5.28712,-2.00371 -9.2594,-4.78195 -11.72969,-8.20381 -3.67515,-5.09088 -4.87149,-8.77556 -5.86715,-18.07065 -0.17536,-1.63711 -0.41403,-2.97656 -0.53037,-2.97656 -0.23016,0 -0.70588,1.61857 -1.4217,4.83707 -0.4078,1.83356 -0.66984,2.34176 -2.39377,4.64236 -2.4032,3.20708 -6.04885,6.76047 -9.6602,9.41575 -1.51687,1.11528 -3.65091,2.71918 -4.74232,3.56422 -9.043243,7.00188 -16.989093,10.14621 -22.072983,8.73471 -1.505876,-0.4181 -3.809882,-2.82962 -4.903821,-5.13265 -0.810249,-1.70579 -0.890045,-2.10833 -1.010217,-5.09613 -0.172227,-4.28206 0.245148,-6.92037 2.060978,-13.02783 0.972518,-3.27102 1.992611,-5.94621 2.790474,-7.31801 l 0.639953,-1.1003 -1.053094,-1.80211 c -1.135803,-1.94365 -1.806817,-3.80525 -2.545989,-7.06334 -0.507414,-2.23655 -0.686844,-2.1746 -1.014884,0.35043 -0.461065,3.54896 -1.952492,8.41346 -3.549441,11.577 -0.955042,1.89193 -3.856892,5.09914 -5.438597,6.0109 -2.856143,1.64639 -6.998775,1.90724 -9.543005,0.60088 -3.587898,-1.84224 -6.271687,-5.41734 -7.69552,-10.25128 -0.4275,-1.45137 -0.505837,-2.56635 -0.501909,-7.14375 0.0026,-2.98318 0.165126,-6.91649 0.36126,-8.74069 0.281564,-2.61877 0.290556,-3.63489 0.04273,-4.82865 -0.17263,-0.83155 -0.418434,-1.51191 -0.546232,-1.51191 -0.966021,0 -2.828935,4.42589 -3.69711,8.78356 -0.579161,2.907 -1.737348,7.92505 -2.827542,12.25081 -1.388791,5.51057 -4.10506,11.36445 -6.076353,13.09527 -1.667304,1.46391 -3.834161,0.9946 -6.349032,-1.37512 -1.97151,-1.85772 -2.60895,-2.92053 -3.84468,-6.41024 -1.36038,-3.84176 -1.75503,-5.78943 -2.11652,-10.44561 -0.25002,-3.22024 -0.22778,-4.67154 0.13411,-8.75492 0.50226,-5.66709 0.58924,-6.08542 1.26536,-6.08542 0.60563,0 0.61176,0.18663 0.19393,5.91069 -0.3676,5.03594 -0.0851,8.33409 1.09993,12.84303 0.91119,3.46689 1.30923,4.20573 3.2594,6.05012 1.990419,1.88246 3.817148,2.36031 5.380006,1.40734 1.797546,-1.09606 4.412277,-7.25336 6.161807,-14.51013 2.20568,-9.14881 3.884236,-14.50398 5.524146,-17.62395 1.267381,-2.41123 2.904771,-4.39585 3.626742,-4.39585 0.526966,0 1.350283,1.93252 1.751884,4.11208 0.24271,1.31724 0.243132,2.44873 0.0018,4.94934 -0.172039,1.78294 -0.374019,4.19421 -0.448844,5.35837 -0.07482,1.16417 -0.197416,2.79048 -0.272423,3.61403 -0.07501,0.82354 -0.0093,2.54995 0.146035,3.83645 0.684398,5.6686 2.932653,9.73782 6.28685,11.37888 2.609085,1.27651 6.459142,0.87005 9.353882,-0.9875 3.050894,-1.95775 5.634213,-5.67669 6.755481,-9.72518 0.940273,-3.39498 0.210333,-10.55438 -1.70425,-16.71564 -0.429589,-1.38244 -1.038525,-3.54414 -1.353189,-4.80376 l -0.572118,-2.29022 0.67608,-3.6629 c 0.807008,-4.37227 0.869217,-4.58895 1.317475,-4.58895 0.429747,0 1.115189,1.01232 1.368312,2.02084 0.10395,0.41418 0.471542,1.46837 0.816869,2.34266 0.579222,1.46647 1.639701,4.86518 3.51549,11.26674 0.548053,1.87036 0.853558,3.80918 1.167345,7.40833 0.468046,5.3685 0.701314,6.37552 2.160349,9.32628 2.423115,4.90051 6.180575,7.38941 11.229428,7.43826 1.463559,0.0142 2.002243,-0.12338 3.561673,-0.90936 1.097757,-0.55329 2.148588,-1.32006 2.610624,-1.90493 l 0.77332,-0.97889 -0.44971,-1.79924 c -0.24734,-0.98958 -1.46723,-3.93832 -2.710875,-6.55276 -3.79621,-7.98056 -6.642244,-15.32564 -7.086692,-18.28944 -0.211899,-1.41304 -0.662091,-2.42238 -1.674426,-3.7541 -0.593457,-0.78069 -0.64363,-1.03328 -0.499288,-2.51355 0.246466,-2.52755 1.301924,-6.40813 1.742915,-6.40813 0.392389,0 0.745994,0.54993 2.977233,4.63021 0.755971,1.38244 2.185448,3.67682 3.176615,5.09862 2.120966,3.04244 2.86571,4.42664 2.86571,5.32626 0,1.18854 -0.553978,1.0459 -2.008704,-0.51722 -0.784783,-0.84325 -1.506563,-1.45351 -1.603956,-1.35611 -0.193786,0.19378 1.349401,3.95558 3.4927,8.51407 3.646308,7.75519 3.957738,8.88956 3.704598,13.49375 -0.42086,7.65479 -1.97168,12.57224 -4.59713,14.57692 -1.934679,1.47724 -3.806721,2.04171 -6.099516,1.83916 -3.227023,-0.28509 -5.598239,-1.46674 -8.422393,-4.19717 -0.954502,-0.92282 -1.414307,-1.217 -1.493228,-0.95533 -0.06272,0.20795 -0.321236,1.21153 -0.574481,2.23017 -0.253244,1.01865 -0.908193,2.92365 -1.455441,4.23334 -2.608592,6.24294 -2.378509,11.17937 0.644785,13.83386 1.138938,1 2.399196,1.37626 4.616242,1.3782 2.804095,0.002 5.546391,-0.82943 10.104533,-3.06527 3.338627,-1.63766 4.958589,-2.65289 8.983659,-5.63012 1.67349,-1.23783 4.11427,-3.04278 5.42396,-4.01102 2.89504,-2.14026 7.38415,-6.24946 8.84056,-8.0924 1.71597,-2.17138 2.15192,-3.44466 1.86295,-5.4411 -1.01607,-7.01983 -3.12914,-14.71612 -6.34319,-23.1034 -3.43486,-8.96351 -3.23363,-8.13505 -3.04393,-12.53168 0.1999,-4.63297 0.27409,-5.06379 0.87146,-5.06089 0.48434,0.002 0.97315,0.80616 3.37755,5.55402 3.15972,6.23938 7.0475,16.61633 7.91616,21.12918 1.49511,7.76741 1.8417,9.9634 2.40705,15.25103 0.73314,6.85703 1.57258,10.13132 3.36427,13.1226 1.31781,2.20012 3.3848,4.59454 4.43513,5.13769 0.73474,0.37995 0.74806,0.37315 0.92194,-0.47072 0.16092,-0.781 0.5419,-1.67554 2.3963,-5.6266 1.042,-2.22012 3.22767,-3.81891 8.7125,-6.37313 0.58208,-0.27107 3.79677,-1.41159 7.14375,-2.5345 l 6.08542,-2.04165 -6.87917,0.12144 c -20.46712,0.36131 -22.96143,0.47325 -23.88341,1.07184 -0.99832,0.64815 -1.021,-0.18965 -0.0709,-2.61706 1.4807,-3.78292 2.14595,-5.06394 2.9718,-5.72264 1.22259,-0.97513 3.96402,-1.79347 9.34081,-2.78829 2.49601,-0.46182 7.99366,-1.69465 9.0802,-2.03621 l 0.87811,-0.27604 -0.18523,-1.75941 c -0.10188,-0.96767 -0.5281,-3.42628 -0.94716,-5.46357 -2.52088,-12.25543 -4.52335,-24.50895 -5.12373,-31.35312 -0.0957,-1.09141 -0.41367,-2.54215 -0.70651,-3.223885 -0.52023,-1.21107 -0.52225,-1.305097 -0.0882,-4.101037 0.43381,-2.794656 1.18917,-5.110504 1.6669,-5.110504 0.50509,0 1.0653,1.002755 1.62595,2.910417 1.52089,5.174984 4.93408,12.040459 12.825,25.796879 6.02434,10.50238 7.61843,14.6033 9.04823,23.27722 0.24042,1.45857 0.54455,2.85928 0.67583,3.11267 0.22089,0.42636 0.80553,0.45104 7.83739,0.33079 4.17928,-0.0715 8.58227,-0.19582 9.78442,-0.27633 2.584,-0.17306 2.78981,0.0196 1.89486,1.77386 -1.28674,2.52223 -3.50302,5.8253 -4.04069,6.02211 -0.31299,0.11457 -1.502,0.35555 -2.64224,0.53552 -1.14025,0.17997 -3.04525,0.68821 -4.23333,1.12942 -1.18809,0.4412 -3.29126,1.15892 -4.67371,1.59492 -1.38244,0.43601 -2.65532,0.92792 -2.8286,1.09315 -0.17329,0.16523 -0.50419,1.66964 -0.73533,3.34313 -1.0665,7.72152 -3.02329,15.60407 -4.40903,17.76093 -0.22177,0.34519 -0.85609,1.75871 -1.40961,3.14115 -1.78923,4.46879 -3.29429,7.04289 -5.86322,10.0279 -2.53134,2.94133 -5.11715,5.49277 -6.86677,6.7755 -0.57116,0.41875 -1.35284,1.04577 -1.73706,1.39339 -0.41528,0.37572 -0.76603,0.52289 -0.8649,0.36291 z m 16.46195,-56.06438 c -0.70562,-3.53419 -2.87996,-8.94554 -5.23591,-13.03073 -1.53127,-2.65523 -2.97885,-5.21695 -4.48531,-7.9375 -4.95521,-8.9487 -5.9842,-10.64088 -5.69765,-9.3698 0.0628,0.27844 0.40907,2.05407 0.76956,3.94584 0.36049,1.89177 0.94647,4.8088 1.3022,6.48229 1.92287,9.04612 1.95426,12.78315 0.15795,18.80419 -0.28528,0.95621 -0.51868,1.8144 -0.51868,1.9071 0,0.21223 2.7378,0.33416 9.0299,0.40213 l 4.92886,0.0532 z m -79.964118,55.00255 c -0.07792,-0.12608 0.06388,-0.40415 0.315115,-0.61795 0.779643,-0.66347 6.089896,-3.53264 10.246365,-5.53618 5.973416,-2.87936 12.366368,-6.79328 15.037498,-9.2063 0.55801,-0.5041 1.34519,-1.3996 1.74929,-1.99001 0.72541,-1.05987 2.73523,-4.73848 2.96423,-5.42548 0.0931,-0.27929 0.23914,-0.28926 0.69146,-0.0472 0.53086,0.28411 0.61602,0.2079 1.14704,-1.02649 1.07625,-2.50182 3.25857,-3.4651 4.44195,-1.96068 0.79199,1.00686 1.61749,3.40678 1.61749,4.70244 0,1.81031 -0.69115,3.78533 -1.39024,3.97269 -1.59228,0.42673 -4.12,-0.17892 -5.68631,-1.36246 l -0.85885,-0.64896 -0.53721,0.62591 c -0.29546,0.34426 -0.93766,1.39983 -1.42712,2.34571 -1.78592,3.45137 -4.10421,5.55541 -9.83952,8.93021 -4.549871,2.67725 -6.708255,3.70572 -10.148891,4.83592 -1.678866,0.55149 -3.978318,1.37066 -5.109892,1.82037 -2.104939,0.83656 -2.962031,0.99356 -3.212405,0.58845 z m 35.829188,-20.686 c 0,-0.45782 -0.70393,-1.67565 -1.25882,-2.17782 -0.41477,-0.37536 -0.66116,-0.41596 -1.2245,-0.20179 -1.47549,0.56099 -1.14203,1.53541 0.76414,2.23297 1.29289,0.47313 1.71918,0.50949 1.71918,0.14664 z m -77.928518,11.3761 c -0.09474,-0.15328 -0.09038,-0.98404 0.0097,-1.84613 0.211012,-1.8181 -0.237523,-1.45051 5.920741,-4.85215 2.195078,-1.21249 7.23756,-3.71551 11.205515,-5.56225 3.967955,-1.84675 7.780073,-3.65044 8.471373,-4.00821 0.691299,-0.35776 1.316378,-0.65048 1.389062,-0.65048 0.209347,0 0.145453,2.74449 -0.07185,3.08604 -0.107743,0.16935 -2.75506,1.5154 -5.882928,2.99122 -9.424434,4.44674 -20.058405,10.13732 -20.327309,10.8778 -0.118652,0.32673 -0.50209,0.30749 -0.714281,-0.0358 z M 33.438216,175.54 c 0,-1.33226 0.09018,-1.55991 0.992187,-2.50474 0.6061,-0.63486 2.382103,-1.77708 4.564063,-2.93531 3.432225,-1.8219 11.505396,-5.7945 11.77566,-5.7945 0.184433,0 0.112579,2.13722 -0.09422,2.80247 -0.124183,0.39948 -2.066432,1.51771 -6.979623,4.01843 -6.59603,3.35725 -8.719326,4.58457 -9.445785,5.4599 -0.605091,0.72909 -0.812281,0.46222 -0.812282,-1.04625 z m 74.681474,-23.70486 c -1.74184,-1.10285 -2.0364,-3.88352 -0.86516,-8.16719 0.29841,-1.0914 0.83939,-3.28975 1.20219,-4.8852 0.36279,-1.59546 0.77705,-3.01826 0.92056,-3.16178 0.51245,-0.51245 0.25931,1.38517 -0.68715,5.15111 -1.0544,4.19541 -1.15648,5.59113 -0.50873,6.95615 0.53119,1.11941 1.07228,1.37085 1.85143,0.86033 0.61055,-0.40005 1.45747,-1.92824 1.45747,-2.62987 0,-0.22408 0.1378,-0.49259 0.30622,-0.59667 0.74372,-0.45965 -0.44895,4.3952 -1.42018,5.78095 -0.80044,1.14206 -1.30276,1.29613 -2.25665,0.69217 z m -75.684479,-6.46488 c -0.98542,-0.69021 -1.642829,-2.30317 -1.642829,-4.03069 0,-2.21027 0.780291,-4.98363 2.63172,-9.35384 1.868918,-4.41148 1.924764,-4.52098 2.383942,-4.67404 0.560488,-0.18683 0.110166,1.57742 -1.166623,4.57054 -2.031947,4.76341 -2.583477,6.5187 -2.445507,7.78301 0.157663,1.44478 1.387489,2.83733 2.260947,2.5601 0.703087,-0.22315 1.656449,-1.54868 1.872049,-2.60284 0.09109,-0.44538 0.330031,-0.86458 0.530984,-0.93156 0.587346,-0.19579 0.145571,2.88784 -0.656678,4.58365 -1.078843,2.28049 -2.430699,3.03236 -3.768005,2.09567 z m 27.757761,-3.52255 c -2.208608,-2.20861 -2.484961,-5.23994 -0.991863,-10.87976 0.520094,-1.96453 1.244787,-4.70297 1.610428,-6.08541 0.82686,-3.12627 1.141515,-3.87017 1.489726,-3.52196 0.305071,0.30507 0.27424,0.44556 -1.585779,7.22612 -1.386413,5.05407 -1.530543,6.07949 -1.081653,7.69543 0.311085,1.11987 1.730867,2.77949 2.585137,3.02184 0.903744,0.25638 2.061134,-1.1154 2.465467,-2.92214 0.311679,-1.39273 0.562631,-1.72748 0.893593,-1.19197 0.214588,0.34721 -0.828265,4.38464 -1.49123,5.77333 -0.518748,1.08661 -1.578829,1.91101 -2.457318,1.91101 -0.225507,0 -0.871936,-0.46192 -1.436508,-1.02649 z m 24.567913,-1.94678 c -1.924218,-1.29673 -2.636341,-3.87947 -2.13475,-7.74235 0.591194,-4.55293 1.559574,-10.6812 1.731885,-10.96 0.09974,-0.16139 0.302327,-0.21865 0.450195,-0.12727 0.29387,0.18163 0.177045,1.69399 -0.478349,6.19248 -0.795099,5.4574 -0.842239,6.06466 -0.545764,7.03066 0.360942,1.17606 1.718278,2.5415 2.424141,2.43861 0.688814,-0.10039 1.73414,-1.67586 1.73414,-2.61362 0,-0.40645 0.119904,-0.81311 0.266453,-0.90368 0.989983,-0.61185 0.428232,4.05778 -0.710033,5.90223 -0.900346,1.45892 -1.486218,1.62646 -2.737918,0.78294 z m 44.716955,-11.53224 c -1.27876,-0.6694 -2.11254,-2.36918 -2.11254,-4.30674 0,-2.08306 0.64367,-5.26946 1.62913,-8.06472 0.4575,-1.29772 1.21876,-3.46881 1.6917,-4.82466 0.95834,-2.74747 1.0984,-2.98109 1.45201,-2.42195 0.38979,0.61634 0.30192,1.36625 -0.41878,3.57405 -0.37017,1.13397 -0.61249,2.21953 -0.5385,2.41234 0.074,0.19282 0.82333,0.78541 1.66521,1.31688 3.60382,2.27506 4.83933,3.80111 4.83651,5.97384 -0.002,1.55054 -0.37863,2.78074 -1.29241,4.22161 -1.39954,2.20686 -4.77066,3.24046 -6.91233,2.11935 z m 4.93265,-3.85842 c 0.74615,-0.34742 1.44102,-0.76822 1.54416,-0.93509 0.4094,-0.66244 -1.45951,-2.41718 -4.66677,-4.3817 -0.47561,-0.29133 -1.00192,-0.80482 -1.16957,-1.14109 -0.27793,-0.55746 -0.35447,-0.42743 -0.86746,1.47374 -0.69567,2.57821 -0.69978,3.14384 -0.0308,4.24107 0.92582,1.5185 2.91383,1.8031 5.19044,0.74307 z M 25.396306,122.87542 c -0.0886,-0.23078 -0.0715,-0.57945 0.0378,-0.77481 0.30439,-0.5437 7.062736,-4.99464 12.237404,-8.05936 7.040716,-4.1699 9.910767,-6.19914 12.633854,-8.93264 1.346068,-1.35121 2.447057,-2.6043 2.446642,-2.78464 -4.15e-4,-0.18034 -0.677428,-0.68508 -1.504475,-1.12164 -0.827046,-0.43656 -1.743372,-1.12178 -2.036281,-1.522705 -0.495466,-0.67817 -0.508952,-0.84403 -0.193608,-2.381246 0.186423,-0.908768 0.521847,-2.040322 0.745386,-2.514564 0.223539,-0.474242 0.436642,-1.486273 0.473563,-2.248958 0.109293,-2.257711 0.581047,-3.604736 1.328114,-3.792238 1.896398,-0.475966 7.781417,4.268482 9.30475,7.501402 0.428369,0.909113 0.707049,2.069854 0.803668,3.347374 0.19077,2.522425 -0.498236,4.177775 -2.002482,4.811005 -0.951052,0.40036 -0.996041,0.39039 -3.16734,-0.70251 -1.536895,-0.77358 -2.286462,-1.02477 -2.480115,-0.83111 -0.152642,0.15264 -0.64976,0.94378 -1.104708,1.7581 -0.989265,1.77069 -2.952143,4.09284 -4.784393,5.66009 -2.826469,2.41767 -9.389153,6.46661 -16.283409,10.04629 -6.46206,3.35526 -6.18436,3.24589 -6.45441,2.54216 z m 34.873613,-22.03193 c 0.252571,-0.40867 -1.220928,-2.891091 -2.407047,-4.055179 -0.908663,-0.891785 -1.211728,-1.05955 -1.39076,-0.769871 -0.333501,0.539618 -0.636162,3.300345 -0.372086,3.393995 0.123556,0.0438 0.819961,0.43267 1.547565,0.864125 1.3118,0.77786 2.352863,1.00293 2.622328,0.56693 z m -5.247763,-2.509335 c 0.07484,-0.195042 -0.116222,-1.028966 -0.424594,-1.853163 -0.844869,-2.258116 -1.919751,-2.559258 -3.296179,-0.923466 -0.832768,0.989689 -0.667618,1.259645 1.435028,2.345698 1.662378,0.858651 2.090633,0.939381 2.285745,0.430931 z M 121.288,111.26513 c -1.23423,-1.31378 -1.01937,-4.26664 0.68891,-9.46749 0.65222,-1.985695 1.05763,-2.844275 1.34304,-2.844275 0.52577,0 0.31643,1.520485 -0.41913,3.044255 -0.8215,1.70178 -1.41153,4.03971 -1.22912,4.87022 0.22726,1.03468 0.98912,1.66902 1.87871,1.56422 0.60632,-0.0714 0.80056,-0.29548 1.14787,-1.32404 0.52404,-1.55191 0.81494,-1.85562 0.81494,-0.85083 0,1.06729 -0.88297,4.1631 -1.42204,4.98581 -0.60082,0.91698 -1.95249,0.92765 -2.80318,0.0221 z m -23.820616,-4.75842 v -1.70709 l 1.256774,-0.86584 c 1.588472,-1.09436 4.396462,-2.64714 9.538082,-5.274425 2.22639,-1.137652 4.60764,-2.359494 5.29167,-2.715208 1.85075,-0.962446 10.25883,-4.928283 10.44858,-4.928283 0.0903,0 1.4494,-0.545008 3.02025,-1.21113 1.57086,-0.666121 4.40392,-1.860617 6.29569,-2.654435 1.89177,-0.793819 4.2438,-1.819889 5.22673,-2.280156 2.25164,-1.054351 2.54881,-0.877733 2.07623,1.23397 -0.1792,0.800756 -0.52646,1.68697 -0.77168,1.969365 -0.24523,0.282394 -1.51743,0.949306 -2.82711,1.482025 -1.30969,0.532719 -5.1578,2.097798 -8.55137,3.477953 -3.39356,1.380154 -7.67981,3.222843 -9.525,4.094863 -7.28557,3.443101 -18.18734,9.154541 -20.173992,10.569161 -1.148826,0.81804 -1.304854,0.67565 -1.304854,-1.19077 z m -27.698219,-5.95267 c -0.463655,-0.28271 -0.992608,-0.788285 -1.175451,-1.123495 -0.520903,-0.95498 -0.695874,-3.014865 -0.465958,-5.485588 0.129909,-1.396028 0.108255,-2.655842 -0.05634,-3.277623 -0.189833,-0.717138 -0.174149,-1.445949 0.05409,-2.513541 0.429365,-2.008357 0.668204,-2.199732 1.191961,-0.955086 0.366467,0.870864 0.409185,1.606461 0.263933,4.544901 -0.142447,2.88172 -0.10096,3.645759 0.233036,4.291636 1.120902,2.167581 3.805636,1.610727 5.174961,-1.073371 0.645992,-1.26625 0.64829,-2.027315 0.01361,-4.508879 -0.436822,-1.707961 -0.46109,-2.160743 -0.182181,-3.399131 0.709199,-3.148922 1.470235,-1.395825 1.719943,3.962001 0.201002,4.31277 0.497854,5.219275 1.931098,5.897045 1.504336,0.711388 2.210708,0.795793 2.685599,0.320902 0.594636,-0.594637 0.570812,-0.746624 -0.540642,-3.449067 -0.819155,-1.991731 -0.993815,-2.7628 -1.089466,-4.809641 -0.116398,-2.490815 0.03972,-3.780072 0.457731,-3.780072 0.129093,0 0.318098,0.625078 0.420011,1.389062 0.101913,0.763985 0.597414,2.460625 1.101113,3.770313 1.077516,2.801688 1.277854,4.135128 1.025641,6.826614 -0.161507,1.723515 -0.298069,2.112035 -1.032543,2.93762 -0.656789,0.73825 -1.047173,0.9514 -1.742494,0.9514 -1.421917,0 -3.031547,-1.106565 -3.710399,-2.550755 l -0.584835,-1.244188 -0.704916,1.194908 c -1.50508,2.551265 -3.116761,3.224705 -4.987509,2.084035 z M 37.274674,99.759275 c -1.554764,-0.64309 -2.513542,-2.681761 -2.513542,-5.344598 0,-2.291089 0.635889,-4.694918 2.276532,-8.605906 0.66049,-1.574484 1.486562,-3.846306 1.835717,-5.048493 0.68644,-2.363512 1.070655,-3.238164 1.422452,-3.238164 0.271216,0 0.542156,0.933842 0.547103,1.885688 0.0048,0.922306 -1.286993,5.082045 -2.944385,9.481341 -1.134159,3.010453 -1.322466,3.763884 -1.216456,4.867148 0.141547,1.473104 0.876077,2.270687 2.100468,2.280773 0.802359,0.0066 1.895904,-1.205476 2.204988,-2.444012 0.229641,-0.920197 0.502208,-1.093006 0.923432,-0.585462 0.584958,0.704832 0.379586,2.407753 -0.507748,4.210185 -1.141632,2.31898 -2.558238,3.191035 -4.128561,2.5415 z M 90.458548,94.18662 c 0.09138,-0.147854 1.080672,-0.88329 2.198428,-1.6343 1.117755,-0.75101 3.163376,-2.219055 4.545824,-3.262321 3.31079,-2.498488 5.9281,-4.228056 8.98807,-5.939489 2.39079,-1.337165 11.13465,-7.047224 13.36922,-8.730596 1.26164,-0.950428 3.49533,-3.133813 3.85128,-3.764534 0.20971,-0.3716 -0.0549,-0.649807 -1.53435,-1.61345 -2.22087,-1.446526 -2.67845,-1.958533 -3.24441,-3.630321 -0.3991,-1.178908 -0.41081,-1.552092 -0.10407,-3.31604 0.39125,-2.249917 0.93115,-3.154932 2.67767,-4.488501 1.44799,-1.105618 2.62398,-1.211437 3.63564,-0.327142 1.36005,1.188833 2.15958,6.12501 1.4678,9.061979 -0.2457,1.043119 -0.2304,1.075807 1.06464,2.273848 l 1.31393,1.215514 v 1.981535 c 0,1.089844 -0.0778,2.059311 -0.17284,2.154371 -0.0951,0.09506 -0.44025,-0.18962 -0.76708,-0.632623 -0.57406,-0.778094 -2.44095,-2.340029 -2.81488,-2.355076 -0.1006,-0.004 -0.56044,0.70094 -1.02185,1.56664 -0.46142,0.8657 -1.37018,2.112855 -2.01948,2.771456 -1.33753,1.356693 -4.79164,4.077931 -6.9622,5.485003 -4.88708,3.168055 -6.49078,4.142485 -9.36506,5.690325 -3.22336,1.735823 -6.878942,3.839474 -9.817238,5.649447 -2.511546,1.5471 -3.753124,2.113103 -4.635283,2.113103 -0.487858,0 -0.75262,-0.108871 -0.653761,-0.268828 z M 125.13588,64.860378 c -0.42159,-4.114928 -2.10765,-5.359455 -4.32452,-3.192048 -0.98941,0.96733 -1.06056,1.497403 -0.32629,2.43088 0.76516,0.972744 4.13794,2.930417 4.57902,2.657816 0.14623,-0.09038 0.17608,-0.87877 0.0718,-1.896648 z M 57.989198,83.199485 c -0.150708,-0.150708 -0.03605,-1.761512 0.211886,-2.976818 0.09787,-0.479739 0.866698,-0.962252 3.673026,-2.305188 2.801779,-1.340758 16.341275,-7.12415 18.446905,-7.879589 0.26195,-0.09398 0.522729,-0.579256 0.627111,-1.166975 0.09828,-0.553351 0.389713,-1.899062 0.647631,-2.990468 1.198505,-5.071591 -0.265586,-9.713438 -4.431507,-14.049933 L 74.9778,49.554539 v -1.758921 c 0,-1.165437 0.104329,-1.758922 0.309202,-1.758922 0.386445,0 3.691191,3.451537 4.746592,4.957427 1.266167,1.806618 2.291294,4.536394 2.640202,7.030504 0.354415,2.53347 0.03558,6.990021 -0.697017,9.742477 -0.207963,0.781349 -0.379528,1.49961 -0.381255,1.596135 -0.0028,0.15542 8.39169,-3.167886 19.179156,-7.592876 3.2613,-1.33778 8.58444,-3.334237 10.02971,-3.761671 0.46173,-0.136556 0.4902,-0.04342 0.33432,1.093789 -0.25676,1.873278 -0.52488,2.177185 -2.48996,2.822242 -1.74698,0.573465 -5.19741,1.960389 -16.20845,6.515097 -2.983177,1.233989 -7.686146,3.168876 -10.451042,4.29975 -10.743125,4.394059 -14.977106,6.225275 -19.182292,8.296424 -2.401094,1.182593 -4.432598,2.187926 -4.514453,2.234074 -0.08185,0.04615 -0.218347,0.01438 -0.303315,-0.07058 z m 37.557347,-0.584142 c -1.708375,-1.783582 -1.816952,-3.353352 -0.576832,-8.339652 0.756401,-3.041351 1.294583,-4.426494 1.719866,-4.426494 0.379168,0 0.193948,1.123333 -0.696126,4.221895 -0.353505,1.230636 -0.642736,2.45577 -0.642736,2.72252 0,0.691997 0.972607,2.506316 1.502552,2.802888 0.551504,0.308637 1.610319,-0.121959 1.783909,-0.725476 0.0669,-0.232578 0.25333,-0.932477 0.41431,-1.555331 0.16097,-0.622855 0.40618,-1.062312 0.54491,-0.976573 0.801072,0.495087 -0.39746,5.139708 -1.619553,6.276223 -0.430316,0.400183 -0.996364,0.727604 -1.257884,0.727604 -0.26152,0 -0.789107,-0.327421 -1.172416,-0.727604 z"
       id="path1" /></g></svg>
